<svg width="16" height="16" viewBox="0 0 16 16" fill="none" xmlns="http://www.w3.org/2000/svg">
<path d="M14.6658 8.14775C14.6738 7.68927 14.6254 7.23078 14.5233 6.78548H8.13535V9.2597H11.8858C11.7433 10.1371 11.2406 10.9171 10.4959 11.423L10.4824 11.5047L12.5015 13.0382L12.6413 13.0514C13.9237 11.8894 14.6658 10.1793 14.6658 8.14775Z" fill="#4285F4"/>
<path d="M8.13533 14.6666C9.97159 14.6666 11.5148 14.0738 12.6413 13.0514L10.4959 11.4204C9.79952 11.8788 8.97415 12.1107 8.13802 12.087C6.37434 12.0765 4.815 10.9592 4.26654 9.31503L4.18589 9.32294L2.08615 10.9145L2.05927 10.9882C3.20995 13.2464 5.56241 14.6693 8.13533 14.6666" fill="#34A853"/>
<path d="M4.26385 9.31764C4.11598 8.89341 4.03801 8.4481 4.03801 7.99753C4.0407 7.54958 4.11598 7.10427 4.25847 6.67741L4.25578 6.59046L2.12916 4.9726L2.05926 5.00421C1.09139 6.88821 1.09139 9.10684 2.05926 10.9908L4.26385 9.31764Z" fill="#FBBC05"/>
<path d="M8.13535 3.91075C9.11128 3.89494 10.0523 4.25066 10.7647 4.90413L12.6843 3.06756C11.453 1.93453 9.82105 1.31531 8.13266 1.33376C5.55974 1.33376 3.20729 2.754 2.05391 5.00952L4.25312 6.68272C4.80696 5.03851 6.36899 3.92129 8.13535 3.91075" fill="#EB4335"/>
</svg>
